<?xml version="1.0" encoding="UTF-8"?>
<svg version="1.1" xmlns="http://www.w3.org/2000/svg" width="600" height="600">
<path d="M0 0 C53.13 0 106.26 0 161 0 C159.59130561 7.04347195 155.38340022 11.51363381 151 17 C150.05640625 18.19689453 150.05640625 18.19689453 149.09375 19.41796875 C145.43206099 23.85360567 142.09274613 26.35931682 137 29 C136.26523438 29.63164062 135.53046875 30.26328125 134.7734375 30.9140625 C131.4282432 33.43002553 128.16268076 34.72443814 124.25 36.125 C123.58484375 36.37636719 122.9196875 36.62773437 122.234375 36.88671875 C113.11243349 40.23727803 104.65426681 41.30153566 94.95019531 41.3347168 C93.7767305 41.34636871 92.60326569 41.35802063 91.39424133 41.37002563 C87.53888339 41.40583586 83.68358776 41.42782589 79.828125 41.44921875 C77.14010223 41.46952106 74.4521027 41.49240742 71.76409912 41.51509094 C66.14240732 41.56101045 60.52070397 41.59945263 54.89892578 41.63305664 C48.40665174 41.67192537 41.91452298 41.72122198 35.42236829 41.77638692 C29.16093295 41.82947347 22.89946809 41.87661763 16.63796234 41.92057228 C13.97938837 41.93962465 11.32082342 41.95998253 8.66226959 41.98166466 C4.95226699 42.01080888 1.24228652 42.03312682 -2.46777344 42.0534668 C-3.56709702 42.06327072 -4.66642059 42.07307465 -5.79905701 42.08317566 C-7.31702629 42.08939941 -7.31702629 42.08939941 -8.86566162 42.0957489 C-9.7416589 42.1014474 -10.61765617 42.1071459 -11.52019882 42.11301708 C-14.10209083 41.9953472 -16.48254842 41.57072112 -19 41 C-17.4172927 37.35389459 -15.83371838 33.70816634 -14.25 30.0625 C-13.58484375 28.53012695 -13.58484375 28.53012695 -12.90625 26.96679688 C-12.02640629 24.94186245 -11.14427319 22.9179211 -10.25976562 20.89501953 C-9.44619921 19.02539346 -8.64210833 17.1516023 -7.84960938 15.27294922 C-7.32850586 14.05309326 -7.32850586 14.05309326 -6.796875 12.80859375 C-6.49620117 12.09372803 -6.19552734 11.3788623 -5.88574219 10.64233398 C-5 9 -5 9 -3 8 C-3 6.35 -3 4.7 -3 3 C-2.34 3 -1.68 3 -1 3 C-0.67 2.01 -0.34 1.02 0 0 Z " fill="#F9F9F9" transform="translate(38,307)"/>
<path d="M0 0 C0.89407562 0.00359528 1.78815125 0.00719055 2.70932007 0.01089478 C3.64580887 0.01074875 4.58229767 0.01060272 5.54716492 0.01045227 C8.65845007 0.01115179 11.76967617 0.01894602 14.88095093 0.02676392 C17.0318651 0.02862796 19.18277971 0.03005192 21.33369446 0.03105164 C27.00711225 0.03487792 32.68050463 0.04470914 38.35391235 0.05575562 C44.13831234 0.06596736 49.92271641 0.07054875 55.7071228 0.07559204 C67.06585796 0.08633131 78.42457421 0.10340906 89.78329468 0.12442017 C91.24392318 2.77180933 91.78329468 4.01890351 91.78329468 7.12442017 C92.77329468 7.61942017 92.77329468 7.61942017 93.78329468 8.12442017 C93.84234885 11.41600882 93.87723843 14.70745772 93.90829468 17.99942017 C93.92505249 18.91723267 93.9418103 19.83504517 93.95907593 20.78067017 C94.01402848 28.58393225 92.66825426 35.58458185 90.78329468 43.12442017 C52.50329468 43.12442017 14.22329468 43.12442017 -25.21670532 43.12442017 C-24.50516179 39.56670248 -24.00861813 37.32918772 -22.55264282 34.20645142 C-22.23553345 33.50971313 -21.91842407 32.81297485 -21.59170532 32.09512329 C-20.91918706 30.64369227 -20.24467286 29.19318456 -19.56826782 27.74356079 C-18.72896831 25.89469404 -17.96646095 24.01137497 -17.21670532 22.12442017 C-17.54670532 21.46442017 -17.87670532 20.80442017 -18.21670532 20.12442017 C-17.22670532 20.12442017 -16.23670532 20.12442017 -15.21670532 20.12442017 C-15.05815063 19.59074829 -14.89959595 19.05707642 -14.73623657 18.50723267 C-8.94547824 0.01519778 -8.94547824 0.01519778 0 0 Z " fill="#F9F9F9" transform="translate(115.21670532226563,249.87557983398438)"/>
<path d="M0 0 C0.87231262 0.01041321 1.74462524 0.02082642 2.64337158 0.03155518 C3.58702576 0.04917908 4.53067993 0.06680298 5.50292969 0.08496094 C6.48412781 0.10145691 7.46532593 0.11795288 8.47625732 0.13494873 C10.56104926 0.17248614 12.64578876 0.21303713 14.73046875 0.25634766 C17.87070864 0.31826923 21.01079566 0.36026542 24.15136719 0.40136719 C42.72716507 0.72357789 58.01167668 3.32119373 74.67480469 12.06933594 C75.45855469 12.46121094 76.24230469 12.85308594 77.04980469 13.25683594 C77.58605469 13.52496094 78.12230469 13.79308594 78.67480469 14.06933594 C78.67480469 14.72933594 78.67480469 15.38933594 78.67480469 16.06933594 C79.22652344 16.30652344 79.77824219 16.54371094 80.34667969 16.78808594 C83.2425518 18.38178737 85.46992506 20.35850867 87.92480469 22.56933594 C88.81683594 23.36339844 89.70886719 24.15746094 90.62792969 24.97558594 C92.67480469 27.06933594 92.67480469 27.06933594 92.67480469 29.06933594 C93.33480469 29.06933594 93.99480469 29.06933594 94.67480469 29.06933594 C97.69667153 33.19922062 100.17649246 37.6080641 102.67480469 42.06933594 C101.67480469 43.06933594 101.67480469 43.06933594 99.56835079 43.19238377 C98.63273091 43.19146197 97.69711103 43.19054018 96.73313904 43.18959045 C95.66316681 43.19096512 94.59319458 43.19233978 93.49079895 43.1937561 C92.30685043 43.19016083 91.12290192 43.18656555 89.90307617 43.18286133 C88.04480194 43.18308037 88.04480194 43.18308037 86.14898682 43.18330383 C82.74210636 43.18272485 79.33528585 43.17769553 75.92841601 43.17072988 C72.37163642 43.16449587 68.81485611 43.1638925 65.2580719 43.16270447 C58.51843887 43.15959129 51.77882198 43.15137809 45.03919607 43.14135498 C37.3682207 43.13019342 29.69724458 43.12468328 22.02626312 43.11965954 C6.24243428 43.10919546 -9.54137844 43.09159628 -25.32519531 43.06933594 C-24.37674846 37.894448 -22.42513972 33.50595172 -20.28613281 28.71386719 C-19.96902344 27.84117187 -19.65191406 26.96847656 -19.32519531 26.06933594 C-19.65519531 25.40933594 -19.98519531 24.74933594 -20.32519531 24.06933594 C-19.33519531 24.06933594 -18.34519531 24.06933594 -17.32519531 24.06933594 C-16.97457031 22.87308594 -16.62394531 21.67683594 -16.26269531 20.44433594 C-14.77304595 15.98251534 -12.8855333 11.78933132 -10.82519531 7.56933594 C-10.52863037 6.94591309 -10.23206543 6.32249023 -9.92651367 5.68017578 C-9.13802506 4.10145363 -8.23798965 2.57959566 -7.32519531 1.06933594 C-4.51201061 0.1316077 -2.90000448 -0.04144499 0 0 Z " fill="#F9F9F9" transform="translate(97.3251953125,194.9306640625)"/>
<path d="M0 0 C3.35409194 -0.05859857 6.70805017 -0.09379582 10.0625 -0.125 C11.00544922 -0.14175781 11.94839844 -0.15851563 12.91992188 -0.17578125 C23.97567105 -0.2528248 32.86773664 3.01915055 40.8984375 10.8515625 C48.5068729 20.23658687 50.23461811 31.15840174 49.30126953 42.89306641 C48.5340685 48.25849986 46.36059994 53.15233941 44 58 C43.34 58 42.68 58 42 58 C41.773125 58.75023437 41.54625 59.50046875 41.3125 60.2734375 C38.36869722 66.38883733 30.44199975 69.74536586 24.25 71.9375 C14.1120536 74.52041628 3.16053938 74.33938329 -6 69 C-8.1885346 67.44556798 -10.0441544 65.85290635 -12 64 C-12.144375 65.134375 -12.28875 66.26875 -12.4375 67.4375 C-13 71 -13 71 -14 72 C-16.21484375 72.203125 -16.21484375 72.203125 -18.9375 72.25 C-19.83339844 72.27578125 -20.72929687 72.3015625 -21.65234375 72.328125 C-22.42707031 72.21984375 -23.20179688 72.1115625 -24 72 C-26.43441639 68.34837541 -26.21773508 65.74882796 -26.08203125 61.54296875 C-26.06412033 60.80355545 -26.04620941 60.06414215 -26.02775574 59.30232239 C-25.98653908 57.73110625 -25.93995146 56.16002325 -25.88842773 54.58911133 C-25.81398983 52.23462364 -25.76414316 49.88055838 -25.71679688 47.52539062 C-25.33171615 32.58106089 -24.12047722 19.31452992 -13.1640625 8.125 C-9.16415825 4.4918992 -5.56648472 2 0 2 C0 1.34 0 0.68 0 0 Z M-7 17 C-13.57695977 25.13466077 -13.86156349 33.90587965 -13 44 C-11.48674085 49.86490167 -8.73745219 54.16491965 -4 58 C3.83795593 62.57214096 12.96990613 63.39999382 21.79296875 61.3515625 C28.61144537 58.93775988 32.7652337 55.41854933 36.02734375 48.96875 C39.09446663 41.16666785 39.20700465 32.60398471 36.5 24.6875 C34.09688531 19.49743979 30.96293049 15.87706116 26 13 C14.5041893 8.92037136 2.72470175 8.82854922 -7 17 Z " fill="#FCFCFC" transform="translate(288,226)"/>
<path d="M0 0 C2.4375 2.625 2.4375 2.625 4 5 C4.66 5.33 5.32 5.66 6 6 C9.05867109 12.15943399 9.3807101 18.2459209 9 25 C-4.66792641 26.14069132 -18.29280589 26.10657507 -32 26 C-31.3953915 27.4606514 -30.78003882 28.91685871 -30.16015625 30.37109375 C-29.81863525 31.18247803 -29.47711426 31.9938623 -29.12524414 32.82983398 C-28.06502976 35.23124404 -28.06502976 35.23124404 -25.4375 37.0625 C-19.59258383 38.65656805 -13.69880263 39.06827604 -8 36.8125 C-5.1679314 34.24593783 -3.68810755 31.3762151 -2 28 C1.63 28 5.26 28 9 28 C8.42861463 35.14231712 5.95436786 39.34388433 0.8125 44.1875 C-4.80696681 48.75256792 -11.40311609 50.63741841 -18.609375 50.34765625 C-26.48802132 49.2019054 -33.78793714 46.13518027 -39 40 C-43.8837704 33.07012396 -44.69089062 25.2439507 -43.4375 17 C-42.14259027 11.47038546 -39.69212298 6.33386896 -36 2 C-33.48046875 0.8203125 -33.48046875 0.8203125 -31 0 C-30.05125 -0.53625 -29.1025 -1.0725 -28.125 -1.625 C-20.0564877 -5.09304476 -7.65628153 -4.39718872 0 0 Z M-28 10.4375 C-30.30763543 12.85239107 -30.30763543 12.85239107 -30 16 C-21.09 16 -12.18 16 -3 16 C-4.33805087 10.22335529 -4.33805087 10.22335529 -7.1875 8.1875 C-14.68810538 5.02057773 -21.67143188 5.2955384 -28 10.4375 Z " fill="#F5F5F5" transform="translate(399,249)"/>
<path d="M0 0 C18.8855773 0.54425295 18.8855773 0.54425295 26.0625 6.796875 C34.50729006 15.87502432 35.2505527 25.4177938 34.93603516 37.44628906 C34.722629 42.63817028 34.38580518 47.81833968 34 53 C30.7 53 27.4 53 24 53 C23.34 51.35 22.68 49.7 22 48 C21.505 48.99 21.505 48.99 21 50 C18.66666667 50.66666667 16.33333333 51.33333333 14 52 C13.505 52.99 13.505 52.99 13 54 C5.35304893 56.4331208 -2.18132616 53.16331308 -9.21875 50.00390625 C-14.82451479 46.64782338 -17.31761306 41.12922465 -19 35 C-20.19936231 25.7658853 -19.69323857 17.61470658 -14 10 C-10.77092477 6.54748429 -7.36347178 3.86635625 -3 2 C-2.01 2 -1.02 2 0 2 C0 1.34 0 0.68 0 0 Z M-5.875 17.0625 C-8.77074576 22.04961769 -8.55465584 27.40656932 -8 33 C-6.75645988 36.95090461 -4.76496218 39.42161396 -1.4375 41.9375 C4.59858111 43.8031978 10.42635122 43.84228506 16.4375 41.875 C19.81803132 39.4014405 21.26339347 37.8739684 23 34 C23.68992831 28.46649336 24.3556137 22.27989783 21.25 17.375 C17.13387685 13.03020334 13.82505186 10.88929368 7.75 10.6875 C1.94768343 10.75365019 -1.91873987 12.71061385 -5.875 17.0625 Z " fill="#DEDEDE" transform="translate(488,245)"/>
<path d="M0 0 C0 3.3 0 6.6 0 10 C-2.0728125 10.5878125 -2.0728125 10.5878125 -4.1875 11.1875 C-8.52732765 12.62271859 -11.05814923 14.41461938 -14 18 C-15.3968677 20.7937354 -15.07665438 23.05874451 -15.02734375 26.1796875 C-15.01509766 27.41847656 -15.00285156 28.65726562 -14.99023438 29.93359375 C-14.95518189 32.55344214 -14.91614311 35.17324033 -14.87304688 37.79296875 C-14.86208984 39.03433594 -14.85113281 40.27570313 -14.83984375 41.5546875 C-14.82300537 42.69405762 -14.80616699 43.83342773 -14.78881836 45.00732422 C-14.99446235 47.92152541 -15.47834178 49.54508308 -17 52 C-18.64574566 52.02688151 -20.29161413 52.04634123 -21.9375 52.0625 C-22.85402344 52.07410156 -23.77054687 52.08570313 -24.71484375 52.09765625 C-27 52 -27 52 -28 51 C-29.15874534 41.65493343 -29.31501935 32.5592139 -27.8125 23.25 C-27.69938477 22.51273682 -27.58626953 21.77547363 -27.46972656 21.01586914 C-26.15571005 13.81277483 -22.54454892 8.90165201 -16.921875 4.32421875 C-11.55022137 0.62301838 -6.42367382 -0.40147961 0 0 Z " fill="#EAEAEA" transform="translate(454,246)"/>
<path d="M0 0 C1.76953125 1.66796875 1.76953125 1.66796875 3.25 3.3125 C4.4565625 4.55 4.4565625 4.55 5.6875 5.8125 C7.47909164 8.67904662 7.93900805 10.96933656 8.25 14.3125 C9.57 13.9825 10.89 13.6525 12.25 13.3125 C13.22960463 23.80180498 13.14571109 33.82579011 12.25 44.3125 C9.28 44.3125 6.31 44.3125 3.25 44.3125 C2.92 42.0025 2.59 39.6925 2.25 37.3125 C0.765 36.8175 0.765 36.8175 -0.75 36.3125 C-0.976875 36.910625 -1.20375 37.50875 -1.4375 38.125 C-3.51317718 41.58446197 -6.3161428 42.89743607 -10.125 44 C-17.53398397 44.8820219 -22.20055656 43.63920143 -28.75 40.3125 C-27.76 39.8175 -27.76 39.8175 -26.75 39.3125 C-26.75 38.6525 -26.75 37.9925 -26.75 37.3125 C-25.780625 37.4775 -24.81125 37.6425 -23.8125 37.8125 C-16.00421357 38.88299088 -9.98350027 38.5437915 -2.75 35.3125 C-1.574375 34.9721875 -1.574375 34.9721875 -0.375 34.625 C2.52240227 32.28479048 2.77758059 28.81773539 3.25 25.3125 C3.81060952 19.00810175 3.62469773 13.86442207 0.25 8.3125 C-3.71381618 4.17681103 -7.75254167 2.66310184 -13.40234375 2.28515625 C-16.61907632 2.32262235 -19.73384711 2.71185303 -22.90234375 3.25390625 C-23.81693359 3.28291016 -23.81693359 3.28291016 -24.75 3.3125 C-25.41 2.6525 -26.07 1.9925 -26.75 1.3125 C-24.75 -1.6875 -24.75 -1.6875 -23.109375 -2.34765625 C-15.67914111 -3.41790517 -6.32332118 -4.67063497 0 0 Z " fill="#C9C9C9" transform="translate(509.75,251.6875)"/>
<path d="M0 0 C0.97960463 10.48930498 0.89571109 20.51329011 0 31 C-2.97 31 -5.94 31 -9 31 C-9.33 28.69 -9.66 26.38 -10 24 C-10.99 23.67 -11.98 23.34 -13 23 C-13.226875 23.598125 -13.45375 24.19625 -13.6875 24.8125 C-15.76317718 28.27196197 -18.5661428 29.58493607 -22.375 30.6875 C-29.78398397 31.5695219 -34.45055656 30.32670143 -41 27 C-40.34 26.67 -39.68 26.34 -39 26 C-39 25.34 -39 24.68 -39 24 C-38.030625 24.165 -37.06125 24.33 -36.0625 24.5 C-26.95020325 25.74926649 -19.87769606 25.25179737 -12 20 C-10.68 20.33 -9.36 20.66 -8 21 C-8 23.97 -8 26.94 -8 30 C-6.02 30 -4.04 30 -2 30 C-2.33 20.43 -2.66 10.86 -3 1 C-1 0 -1 0 0 0 Z " fill="#D2D2D2" transform="translate(522,265)"/>
<path d="M0 0 C0 2.97 0 5.94 0 9 C2.97 9 5.94 9 9 9 C9 9.66 9 10.32 9 11 C5.7 11 2.4 11 -1 11 C-1.66 9.35 -2.32 7.7 -3 6 C-3.33 6.66 -3.66 7.32 -4 8 C-7.5 9 -7.5 9 -11 10 C-11.33 10.66 -11.66 11.32 -12 12 C-18.46686012 13.8275909 -23.736606 12.00473913 -30 10 C-30 9.34 -30 8.68 -30 8 C-29.09378906 8.03480469 -28.18757813 8.06960938 -27.25390625 8.10546875 C-16.76863903 8.38133628 -16.76863903 8.38133628 -7 5 C-5.12689112 3.006748 -5.12689112 3.006748 -4 1 C-1 0 -1 0 0 0 Z " fill="#E5E5E5" transform="translate(513,287)"/>
<path d="M0 0 C0.33 0 0.66 0 1 0 C1 9.57 1 19.14 1 29 C-2.3 29 -5.6 29 -9 29 C-11.13528171 26.86471829 -10.46655728 22.33415073 -10.625 19.375 C-10.6765625 18.57964844 -10.728125 17.78429687 -10.78125 16.96484375 C-11.04991318 12.15261215 -11.02889966 7.72302133 -10 3 C-9.34 2.67 -8.68 2.34 -8 2 C-8 10.25 -8 18.5 -8 27 C-5.36 27 -2.72 27 0 27 C0 18.09 0 9.18 0 0 Z " fill="#FAFAFA" transform="translate(436,269)"/>
<path d="M0 0 C0.74507813 0.00451172 1.49015625 0.00902344 2.2578125 0.01367188 C4.0885764 0.02540754 5.91929873 0.0433415 7.75 0.0625 C7.42 1.0525 7.09 2.0425 6.75 3.0625 C7.13932856 5.20505793 7.13932856 5.20505793 7.75 7.0625 C6.90953125 6.7221875 6.0690625 6.381875 5.203125 6.03125 C1.30203757 4.93682728 -1.48980859 5.11881925 -5.5 5.5625 C-9.203125 5.96875 -9.203125 5.96875 -12.25 6.0625 C-12.91 5.4025 -13.57 4.7425 -14.25 4.0625 C-12.25 1.0625 -12.25 1.0625 -10.36816406 0.38110352 C-6.92391013 -0.13696372 -3.47326454 -0.03988731 0 0 Z " fill="#D2D2D2" transform="translate(497.25,248.9375)"/>
<path d="M0 0 C0.97960463 10.48930498 0.89571109 20.51329011 0 31 C-2.97 31 -5.94 31 -9 31 C-9.12375 29.329375 -9.12375 29.329375 -9.25 27.625 C-9.57873787 23.94246056 -9.57873787 23.94246056 -12.0625 22.5625 C-12.701875 22.376875 -13.34125 22.19125 -14 22 C-13 21 -13 21 -10.4375 20.9375 C-9.2309375 20.9684375 -9.2309375 20.9684375 -8 21 C-8 23.97 -8 26.94 -8 30 C-6.02 30 -4.04 30 -2 30 C-2.33 20.43 -2.66 10.86 -3 1 C-1 0 -1 0 0 0 Z " fill="#D8D8D8" transform="translate(522,265)"/>
<path d="M0 0 C12.87 0 25.74 0 39 0 C39.495 0.99 39.495 0.99 40 2 C26.66696765 3.575722 13.36849976 2.66495696 0 2 C0 1.34 0 0.68 0 0 Z " fill="#EAEAEA" transform="translate(366,272)"/>
<path d="M0 0 C0.99 0.33 1.98 0.66 3 1 C2.67 6.94 2.34 12.88 2 19 C2.66 19.33 3.32 19.66 4 20 C4 21.65 4 23.3 4 25 C3.34 25 2.68 25 2 25 C-2.02596662 18.12230702 -1.47295591 10.74920062 -1 3 C-0.67 2.01 -0.34 1.02 0 0 Z " fill="#E7E7E7" transform="translate(470,262)"/>
<path d="M0 0 C-2.13089123 1.06790623 -4.26423822 2.13018566 -6.40234375 3.18359375 C-10.70200064 5.31023452 -14.9422462 7.43008926 -19 10 C-19 7 -19 7 -16.5 4.4375 C-11.69278833 0.66446389 -6.06882318 -0.37930145 0 0 Z " fill="#E7E7E7" transform="translate(494,247)"/>
<path d="M0 0 C0.66 0.33 1.32 0.66 2 1 C2 5.95 2 10.9 2 16 C1.34 16 0.68 16 0 16 C-1.70754834 13.02534237 -2.27317355 10.86139168 -2.25 7.4375 C-2.25773437 6.29087891 -2.25773437 6.29087891 -2.265625 5.12109375 C-2 3 -2 3 0 0 Z " fill="#E6E6E6" transform="translate(479,266)"/>
<path d="M0 0 C0.99 0 1.98 0 3 0 C3.027193 1.58323688 3.04648306 3.16661062 3.0625 4.75 C3.07410156 5.63171875 3.08570313 6.5134375 3.09765625 7.421875 C3.00826198 9.7818838 2.66912821 11.74498524 2 14 C1.01 14 0.02 14 -1 14 C-1.33 14.66 -1.66 15.32 -2 16 C-1.34 10.72 -0.68 5.44 0 0 Z " fill="#D9D9D9" transform="translate(511,267)"/>
<path d="M0 0 C-0.825 0.33 -1.65 0.66 -2.5 1 C-7.17066277 3.29063605 -10.49130593 7.25086242 -14 11 C-14.33 10.01 -14.66 9.02 -15 8 C-13.92319498 6.86874978 -12.83824365 5.74525081 -11.75 4.625 C-11.14671875 3.99851563 -10.5434375 3.37203125 -9.921875 2.7265625 C-6.57159869 -0.28323857 -4.35730629 -1.55618082 0 0 Z " fill="#F0F0F0" transform="translate(445,249)"/>
<path d="M0 0 C-1.231394 3.69418201 -3.20791354 5.35109746 -6 8 C-7.32 7.34 -8.64 6.68 -10 6 C-8.90398831 4.99106869 -7.79786082 3.99311775 -6.6875 3 C-6.07261719 2.443125 -5.45773437 1.88625 -4.82421875 1.3125 C-3 0 -3 0 0 0 Z " fill="#E3E3E3" transform="translate(488,256)"/>
<path d="M0 0 C0.66 0 1.32 0 2 0 C1.875 1.75 1.875 1.75 1 4 C-2.0625 6.25 -2.0625 6.25 -5 8 C-6.32 7.34 -7.64 6.68 -9 6 C-6.0173094 4.47551369 -3.181798 3.06059933 0 2 C0 1.34 0 0.68 0 0 Z " fill="#E0E0E0" transform="translate(510,281)"/>
<path d="M0 0 C2.97 0 5.94 0 9 0 C9 0.66 9 1.32 9 2 C6.21176345 3.0326802 5.1322726 3.04509293 2.25 2.0625 C1.5075 1.711875 0.765 1.36125 0 1 C0 0.67 0 0.34 0 0 Z " fill="#ECECEC" transform="translate(489,297)"/>
<path d="M0 0 C0.33 0.66 0.66 1.32 1 2 C0.34 1.67 -0.32 1.34 -1 1 C-0.67 0.67 -0.34 0.34 0 0 Z " fill="#C8C8C8" transform="translate(524,260)"/>
<path d="" fill="#EFEFEF" transform="translate(0,0)"/>
<path d="M0 0 C2 1 2 1 2 1 Z " fill="#CDCDCD" transform="translate(486,281)"/>
<path d="M0 0 C2 1 2 1 2 1 Z " fill="#CBCBCB" transform="translate(508,278)"/>
<path d="" fill="#CACACA" transform="translate(0,0)"/>
<path d="M0 0 C2 1 2 1 2 1 Z " fill="#C9C9C9" transform="translate(508,271)"/>
<path d="" fill="#EBEBEB" transform="translate(0,0)"/>
<path d="M0 0 C2 1 2 1 2 1 Z " fill="#DFDFDF" transform="translate(381,241)"/>
<path d="" fill="#ECECEC" transform="translate(0,0)"/>
<path d="" fill="#E1E1E1" transform="translate(0,0)"/>
<path d="" fill="#EFEFEF" transform="translate(0,0)"/>
<path d="" fill="#EBEBEB" transform="translate(0,0)"/>
<path d="" fill="#FDFDFD" transform="translate(0,0)"/>
<path d="" fill="#F1F1F1" transform="translate(0,0)"/>
<path d="" fill="#EFEFEF" transform="translate(0,0)"/>
<path d="" fill="#EBEBEB" transform="translate(0,0)"/>
<path d="" fill="#E0E0E0" transform="translate(0,0)"/>
<path d="" fill="#F4F4F4" transform="translate(0,0)"/>
<path d="" fill="#E1E1E1" transform="translate(0,0)"/>
<path d="" fill="#F6F6F6" transform="translate(0,0)"/>
<path d="" fill="#F8F8F8" transform="translate(0,0)"/>
<path d="" fill="#E1E1E1" transform="translate(0,0)"/>
<path d="" fill="#FAFAFA" transform="translate(0,0)"/>
<path d="" fill="#E1E1E1" transform="translate(0,0)"/>
<path d="" fill="#D7D7D7" transform="translate(0,0)"/>
<path d="" fill="#E7E7E7" transform="translate(0,0)"/>
<path d="" fill="#C8C8C8" transform="translate(0,0)"/>
<path d="" fill="#DADADA" transform="translate(0,0)"/>
<path d="" fill="#DBDBDB" transform="translate(0,0)"/>
<path d="" fill="#DADADA" transform="translate(0,0)"/>
<path d="" fill="#D7D7D7" transform="translate(0,0)"/>
<path d="" fill="#DEDEDE" transform="translate(0,0)"/>
<path d="" fill="#C8C8C8" transform="translate(0,0)"/>
<path d="" fill="#CCCCCC" transform="translate(0,0)"/>
<path d="" fill="#E9E9E9" transform="translate(0,0)"/>
<path d="" fill="#F1F1F1" transform="translate(0,0)"/>
<path d="" fill="#DFDFDF" transform="translate(0,0)"/>
<path d="" fill="#E7E7E7" transform="translate(0,0)"/>
<path d="" fill="#DEDEDE" transform="translate(0,0)"/>
<path d="" fill="#C5C5C5" transform="translate(0,0)"/>
<path d="" fill="#CDCDCD" transform="translate(0,0)"/>
<path d="" fill="#DFDFDF" transform="translate(0,0)"/>
<path d="" fill="#DDDDDD" transform="translate(0,0)"/>
<path d="" fill="#F3F3F3" transform="translate(0,0)"/>
<path d="" fill="#D0D0D0" transform="translate(0,0)"/>
<path d="" fill="#C8C8C8" transform="translate(0,0)"/>
<path d="" fill="#D3D3D3" transform="translate(0,0)"/>
<path d="" fill="#F5F5F5" transform="translate(0,0)"/>
<path d="" fill="#F8F8F8" transform="translate(0,0)"/>
<path d="" fill="#DEDEDE" transform="translate(0,0)"/>
<path d="" fill="#BDBDBD" transform="translate(0,0)"/>
<path d="" fill="#FAFAFA" transform="translate(0,0)"/>
<path d="" fill="#EAEAEA" transform="translate(0,0)"/>
<path d="" fill="#F0F0F0" transform="translate(0,0)"/>
<path d="" fill="#F1F1F1" transform="translate(0,0)"/>
<path d="" fill="#EAEAEA" transform="translate(0,0)"/>
<path d="" fill="#EFEFEF" transform="translate(0,0)"/>
<path d="" fill="#F6F6F6" transform="translate(0,0)"/>
<path d="" fill="#FDFDFD" transform="translate(0,0)"/>
<path d="" fill="#D3D3D3" transform="translate(0,0)"/>
<path d="" fill="#D9D9D9" transform="translate(0,0)"/>
<path d="" fill="#F1F1F1" transform="translate(0,0)"/>
<path d="" fill="#F2F2F2" transform="translate(0,0)"/>
<path d="" fill="#BEBEBE" transform="translate(0,0)"/>
<path d="" fill="#E2E2E2" transform="translate(0,0)"/>
<path d="" fill="#E6E6E6" transform="translate(0,0)"/>
<path d="" fill="#C6C6C6" transform="translate(0,0)"/>
<path d="" fill="#DDDDDD" transform="translate(0,0)"/>
<path d="" fill="#F8F8F8" transform="translate(0,0)"/>
<path d="" fill="#DDDDDD" transform="translate(0,0)"/>
<path d="" fill="#E8E8E8" transform="translate(0,0)"/>
<path d="" fill="#DEDEDE" transform="translate(0,0)"/>
<path d="" fill="#CDCDCD" transform="translate(0,0)"/>
<path d="" fill="#D1D1D1" transform="translate(0,0)"/>
<path d="" fill="#DEDEDE" transform="translate(0,0)"/>
<path d="" fill="#E1E1E1" transform="translate(0,0)"/>
<path d="" fill="#E2E2E2" transform="translate(0,0)"/>
<path d="" fill="#EEEEEE" transform="translate(0,0)"/>
<path d="" fill="#F9F9F9" transform="translate(0,0)"/>
<path d="" fill="#FCFCFC" transform="translate(0,0)"/>
<path d="" fill="#F1F1F1" transform="translate(0,0)"/>
<path d="" fill="#E8E8E8" transform="translate(0,0)"/>
<path d="" fill="#E8E8E8" transform="translate(0,0)"/>
<path d="" fill="#F2F2F2" transform="translate(0,0)"/>
<path d="" fill="#D4D4D4" transform="translate(0,0)"/>
<path d="" fill="#C2C2C2" transform="translate(0,0)"/>
<path d="" fill="#FAFAFA" transform="translate(0,0)"/>
<path d="" fill="#FBFBFB" transform="translate(0,0)"/>
<path d="" fill="#ECECEC" transform="translate(0,0)"/>
<path d="" fill="#EBEBEB" transform="translate(0,0)"/>
<path d="" fill="#E4E4E4" transform="translate(0,0)"/>
<path d="" fill="#C8C8C8" transform="translate(0,0)"/>
<path d="" fill="#ECECEC" transform="translate(0,0)"/>
<path d="" fill="#F9F9F9" transform="translate(0,0)"/>
<path d="" fill="#E1E1E1" transform="translate(0,0)"/>
<path d="" fill="#BDBDBD" transform="translate(0,0)"/>
<path d="" fill="#E7E7E7" transform="translate(0,0)"/>
<path d="" fill="#F4F4F4" transform="translate(0,0)"/>
<path d="" fill="#EFEFEF" transform="translate(0,0)"/>
<path d="" fill="#CACACA" transform="translate(0,0)"/>
<path d="" fill="#CACACA" transform="translate(0,0)"/>
<path d="" fill="#E7E7E7" transform="translate(0,0)"/>
<path d="" fill="#C6C6C6" transform="translate(0,0)"/>
<path d="" fill="#E6E6E6" transform="translate(0,0)"/>
<path d="" fill="#D5D5D5" transform="translate(0,0)"/>
<path d="" fill="#EBEBEB" transform="translate(0,0)"/>
<path d="" fill="#F0F0F0" transform="translate(0,0)"/>
<path d="" fill="#C7C7C7" transform="translate(0,0)"/>
<path d="" fill="#CECECE" transform="translate(0,0)"/>
<path d="" fill="#DEDEDE" transform="translate(0,0)"/>
<path d="" fill="#CCCCCC" transform="translate(0,0)"/>
<path d="" fill="#D9D9D9" transform="translate(0,0)"/>
<path d="" fill="#D9D9D9" transform="translate(0,0)"/>
<path d="" fill="#CACACA" transform="translate(0,0)"/>
<path d="" fill="#E3E3E3" transform="translate(0,0)"/>
<path d="" fill="#E1E1E1" transform="translate(0,0)"/>
<path d="" fill="#CFCFCF" transform="translate(0,0)"/>
<path d="" fill="#E4E4E4" transform="translate(0,0)"/>
<path d="" fill="#DEDEDE" transform="translate(0,0)"/>
<path d="" fill="#E4E4E4" transform="translate(0,0)"/>
<path d="" fill="#CACACA" transform="translate(0,0)"/>
<path d="" fill="#D9D9D9" transform="translate(0,0)"/>
<path d="" fill="#DADADA" transform="translate(0,0)"/>
<path d="" fill="#DEDEDE" transform="translate(0,0)"/>
<path d="" fill="#DEDEDE" transform="translate(0,0)"/>
<path d="" fill="#F4F4F4" transform="translate(0,0)"/>
<path d="" fill="#DCDCDC" transform="translate(0,0)"/>
<path d="" fill="#C2C2C2" transform="translate(0,0)"/>
<path d="" fill="#CBCBCB" transform="translate(0,0)"/>
<path d="" fill="#E5E5E5" transform="translate(0,0)"/>
<path d="" fill="#F3F3F3" transform="translate(0,0)"/>
<path d="" fill="#FDFDFD" transform="translate(0,0)"/>
<path d="" fill="#E7E7E7" transform="translate(0,0)"/>
<path d="" fill="#E7E7E7" transform="translate(0,0)"/>
<path d="" fill="#E5E5E5" transform="translate(0,0)"/>
<path d="" fill="#BDBDBD" transform="translate(0,0)"/>
<path d="" fill="#BEBEBE" transform="translate(0,0)"/>
<path d="" fill="#D4D4D4" transform="translate(0,0)"/>
<path d="" fill="#DCDCDC" transform="translate(0,0)"/>
<path d="" fill="#E3E3E3" transform="translate(0,0)"/>
<path d="" fill="#C9C9C9" transform="translate(0,0)"/>
<path d="" fill="#CDCDCD" transform="translate(0,0)"/>
<path d="" fill="#DCDCDC" transform="translate(0,0)"/>
<path d="" fill="#E1E1E1" transform="translate(0,0)"/>
<path d="" fill="#E3E3E3" transform="translate(0,0)"/>
<path d="" fill="#CCCCCC" transform="translate(0,0)"/>
<path d="" fill="#C2C2C2" transform="translate(0,0)"/>
<path d="" fill="#D4D4D4" transform="translate(0,0)"/>
<path d="" fill="#E1E1E1" transform="translate(0,0)"/>
<path d="" fill="#D7D7D7" transform="translate(0,0)"/>
<path d="" fill="#CACACA" transform="translate(0,0)"/>
<path d="" fill="#CDCDCD" transform="translate(0,0)"/>
<path d="" fill="#CACACA" transform="translate(0,0)"/>
<path d="" fill="#D7D7D7" transform="translate(0,0)"/>
<path d="" fill="#FAFAFA" transform="translate(0,0)"/>
<path d="" fill="#FBFBFB" transform="translate(0,0)"/>
<path d="" fill="#F7F7F7" transform="translate(0,0)"/>
<path d="" fill="#EEEEEE" transform="translate(0,0)"/>
<path d="" fill="#DEDEDE" transform="translate(0,0)"/>
<path d="" fill="#F8F8F8" transform="translate(0,0)"/>
<path d="" fill="#EBEBEB" transform="translate(0,0)"/>
<path d="" fill="#F4F4F4" transform="translate(0,0)"/>
<path d="" fill="#E9E9E9" transform="translate(0,0)"/>
<path d="" fill="#EEEEEE" transform="translate(0,0)"/>
<path d="" fill="#E8E8E8" transform="translate(0,0)"/>
<path d="" fill="#E8E8E8" transform="translate(0,0)"/>
<path d="" fill="#DFDFDF" transform="translate(0,0)"/>
<path d="" fill="#E6E6E6" transform="translate(0,0)"/>
<path d="" fill="#DFDFDF" transform="translate(0,0)"/>
<path d="" fill="#F7F7F7" transform="translate(0,0)"/>
<path d="" fill="#DEDEDE" transform="translate(0,0)"/>
<path d="" fill="#EFEFEF" transform="translate(0,0)"/>
<path d="" fill="#E2E2E2" transform="translate(0,0)"/>
<path d="" fill="#DCDCDC" transform="translate(0,0)"/>
<path d="" fill="#DCDCDC" transform="translate(0,0)"/>
<path d="" fill="#E1E1E1" transform="translate(0,0)"/>
<path d="" fill="#F7F7F7" transform="translate(0,0)"/>
<path d="" fill="#EBEBEB" transform="translate(0,0)"/>
<path d="" fill="#F6F6F6" transform="translate(0,0)"/>
<path d="" fill="#F1F1F1" transform="translate(0,0)"/>
<path d="" fill="#EBEBEB" transform="translate(0,0)"/>
<path d="" fill="#F6F6F6" transform="translate(0,0)"/>
<path d="" fill="#F6F6F6" transform="translate(0,0)"/>
<path d="" fill="#F4F4F4" transform="translate(0,0)"/>
<path d="" fill="#EBEBEB" transform="translate(0,0)"/>
</svg>
