<?xml version="1.0" encoding="UTF-8"?>
<svg version="1.1" xmlns="http://www.w3.org/2000/svg" width="600" height="600">
<path d="M0 0 C-4.30604776 12.06998237 -15.47053665 24.35138277 -26.9609375 30.0703125 C-28.42899501 30.76224641 -29.90044836 31.44701559 -31.375 32.125 C-32.10460937 32.47175781 -32.83421875 32.81851563 -33.5859375 33.17578125 C-44.46051268 38.24411004 -54.72736947 39.15380245 -66.55664062 39.11352539 C-68.25551422 39.11374443 -68.25551422 39.11374443 -69.9887085 39.1139679 C-73.7112422 39.11327437 -77.4337251 39.10550825 -81.15625 39.09765625 C-83.7455645 39.09579008 -86.33487936 39.09436712 -88.92419434 39.09336853 C-95.02965021 39.08994784 -101.13508529 39.08207608 -107.24053335 39.07201904 C-114.19584399 39.06081261 -121.15115553 39.05533607 -128.10647297 39.05032361 C-142.40432498 39.03989215 -156.70216185 39.02232103 -171 39 C-170.27051483 34.03675515 -168.81768801 29.94943532 -166.65625 25.44921875 C-166.32709595 24.74980667 -165.99794189 24.05039459 -165.65881348 23.32978821 C-164.96628221 21.86168882 -164.27021522 20.39525261 -163.57080078 18.93041992 C-162.49662945 16.68043997 -161.4329668 14.42572832 -160.37109375 12.16992188 C-159.6959124 10.74190371 -159.02015167 9.3141593 -158.34375 7.88671875 C-158.02394165 7.21074142 -157.7041333 6.5347641 -157.37463379 5.83830261 C-155.11770239 1.11770239 -155.11770239 1.11770239 -154 0 C-152.14768525 -0.11091378 -150.2911294 -0.15133557 -148.43554688 -0.16494751 C-146.62291603 -0.18179848 -146.62291603 -0.18179848 -144.77366638 -0.19898987 C-143.42202814 -0.20649024 -142.07038932 -0.21388725 -140.71875 -0.22119141 C-139.30464857 -0.23240143 -137.89055043 -0.24403342 -136.47645569 -0.25605774 C-132.62275172 -0.28747569 -128.76903001 -0.31255528 -124.91527176 -0.3362546 C-121.69755366 -0.35664838 -118.47986202 -0.38020075 -115.26216602 -0.40379179 C-107.66422386 -0.45948911 -100.0662597 -0.51018921 -92.46826172 -0.55761719 C-84.64024619 -0.60654845 -76.81230962 -0.66286068 -68.98437309 -0.72303832 C-62.2615749 -0.77451062 -55.53875648 -0.82181808 -48.81590462 -0.86572587 C-44.8020539 -0.89195318 -40.78822735 -0.91962231 -36.77441406 -0.9510994 C-32.99225741 -0.98053864 -29.2101016 -1.00472814 -25.42788506 -1.02499962 C-24.04485306 -1.03325141 -22.66183025 -1.04328081 -21.27882576 -1.05528831 C-14.0931656 -1.11654424 -7.12301693 -0.9832315 0 0 Z " fill="#101624" transform="translate(204,313)"/>
<path d="M0 0 C0.83901352 0.00090637 1.67802704 0.00181274 2.54246521 0.00274658 C3.42551331 -0.00397064 4.3085614 -0.01068787 5.21836853 -0.01760864 C8.14750237 -0.03666044 11.07640798 -0.04051637 14.00559998 -0.04266357 C16.03579809 -0.04908624 18.06599527 -0.05581419 20.09619141 -0.06283569 C24.35581102 -0.07482625 28.61534943 -0.07851466 32.87498474 -0.07733154 C38.34085601 -0.07712819 43.80620828 -0.10443922 49.27195644 -0.13887596 C53.4660584 -0.16108169 57.66003418 -0.16517104 61.85418892 -0.16411209 C63.86968336 -0.16647727 65.8851808 -0.17535198 67.9006176 -0.19077682 C70.71650218 -0.21031019 73.53125096 -0.20464899 76.34715271 -0.19256592 C77.184142 -0.20380493 78.02113129 -0.21504395 78.88348389 -0.22662354 C84.51480928 -0.16502525 84.51480928 -0.16502525 87.00831604 2.14501953 C89.1623859 6.76700855 89.13200525 11.54847012 89.10716248 16.56671143 C89.10232849 18.29727783 89.10232849 18.29727783 89.09739685 20.06280518 C89.08482849 21.84751221 89.08482849 21.84751221 89.07200623 23.66827393 C89.06749451 24.88128174 89.06298279 26.09428955 89.05833435 27.34405518 C89.04658977 30.32717899 89.03016463 33.31020072 89.00950623 36.29327393 C88.34950623 36.29327393 87.68950623 36.29327393 87.00950623 36.29327393 C86.67950623 38.27327393 86.34950623 40.25327393 86.00950623 42.29327393 C49.70950623 42.29327393 13.40950623 42.29327393 -23.99049377 42.29327393 C-25.36719542 38.16316899 -24.08601459 36.85280713 -22.17799377 32.98077393 C-21.53041074 31.64828952 -20.88469844 30.31489492 -20.24049377 28.98077393 C-19.88342346 28.24471924 -19.52635315 27.50866455 -19.15846252 26.75030518 C-17.85588415 24.01009849 -16.60679276 21.24926875 -15.36549377 18.48077393 C-14.92052551 17.48859863 -14.47555725 16.49642334 -14.0171051 15.47418213 C-13.13157356 13.4946922 -12.24855483 11.51407605 -11.36817932 9.5322876 C-10.95866028 8.62196777 -10.54914124 7.71164795 -10.12721252 6.77374268 C-9.76329407 5.95800781 -9.39937561 5.14227295 -9.02442932 4.30181885 C-6.77947385 -0.05927884 -4.64884413 0.05189687 0 0 Z " fill="#121826" transform="translate(123.99049377441406,257.70672607421875)"/>
<path d="M0 0 C7.13081408 -0.10246541 14.26143438 -0.17190662 21.39282227 -0.21972656 C23.81249078 -0.2396879 26.23211204 -0.26686673 28.65161133 -0.30175781 C45.27804 -0.53530401 60.00442227 -0.46579214 74.875 7.8125 C75.4922998 8.15579346 76.10959961 8.49908691 76.74560547 8.8527832 C87.57083674 15.01695406 95.37832639 22.51568345 102 33 C102.61875 33.969375 103.2375 34.93875 103.875 35.9375 C105 38 105 38 105 40 C64.74 40 24.48 40 -17 40 C-16 34 -16 34 -15 31 C-14.34 31 -13.68 31 -13 31 C-12.88269531 30.28457031 -12.76539062 29.56914062 -12.64453125 28.83203125 C-11.97148299 25.874698 -10.97046124 23.43216322 -9.6875 20.6875 C-9.24019531 19.72714844 -8.79289062 18.76679688 -8.33203125 17.77734375 C-6.92589027 14.84547796 -5.48857379 11.93370872 -3.9921875 9.046875 C-2.55300396 6.07785069 -1.29405674 3.03455206 0 0 Z " fill="#111625" transform="translate(99,207)"/>
<path d="M0 0 C14.00502999 -0.41191265 25.74437624 -0.50570912 37 9 C44.26655648 16.37984355 47.19114368 25.34965088 47.5 35.5625 C47.15237236 46.98786165 42.74432883 55.25567117 34.75 63.25 C25.56988366 69.09189222 15.45360352 71.13802105 4.6484375 69.48828125 C-8.37745098 66.43382353 -8.37745098 66.43382353 -12 61 C-12.33 63.64 -12.66 66.28 -13 69 C-16.3 69 -19.6 69 -23 69 C-24 65 -24 65 -23 63 C-23.66 62.67 -24.32 62.34 -25 62 C-24.67 50.12 -24.34 38.24 -24 26 C-23.34 26 -22.68 26 -22 26 C-21.85498047 24.70835937 -21.85498047 24.70835937 -21.70703125 23.390625 C-20.92526269 19.64159124 -19.62105125 17.0457319 -17.6875 13.75 C-17.09324219 12.71359375 -16.49898438 11.6771875 -15.88671875 10.609375 C-13.96620841 7.95326547 -12.97716573 7.15584081 -10 6 C-8.80872046 5.29804173 -7.62105789 4.58990074 -6.4375 3.875 C-3 2 -3 2 0 2 C0 1.34 0 0.68 0 0 Z M-9 19 C-13.42637888 25.04938447 -13.32861222 33.31370393 -12.8203125 40.5625 C-11.65926296 47.38662793 -8.01897536 52.55218214 -2.6875 56.875 C6.4863018 60.7151961 15.04268162 61.00476449 24.33984375 57.3984375 C29.57283131 54.647469 32.93032592 50.59880549 35.1640625 45.171875 C37.3631685 36.82760362 37.04004965 27.66216313 33 20 C28.79417483 14.99847818 23.69052887 10.6082299 17 10 C6.61410949 9.26859926 -1.800316 11.09599909 -9 19 Z " fill="#06070B" transform="translate(289,235)"/>
<path d="M0 0 C5.25088012 7.21996017 6 11.47538792 6 20.75 C-7.2 20.75 -20.4 20.75 -34 20.75 C-31.00135547 28.95989942 -31.00135547 28.95989942 -24.92578125 33.1640625 C-20.2314412 34.59236069 -16.31213463 34.24514514 -11.6875 32.5 C-7.9227141 30.04851151 -6.4110434 27.98313019 -5 23.75 C-1.37 23.75 2.26 23.75 6 23.75 C5.40895235 28.59659077 4.02055843 32.35748167 2 36.75 C1.34 36.75 0.68 36.75 0 36.75 C0 37.41 0 38.07 0 38.75 C-8.41723547 43.69809287 -16.07419715 45.85983777 -25.8125 44.0625 C-32.8946771 42.14703573 -37.89224759 37.7012919 -42 31.75 C-45.31346364 25.213235 -45.23886028 16.17641429 -43.27734375 9.16796875 C-39.97139825 2.16793031 -34.55686393 -1.90646998 -27.8125 -5.375 C-17.27015299 -8.65484129 -8.87116397 -6.65337297 0 0 Z M-31 7.75 C-31.66 9.4 -32.32 11.05 -33 12.75 C-23.76 12.75 -14.52 12.75 -5 12.75 C-7.2345071 7.16373225 -8.62245536 5.09903575 -14 2.75 C-20.56302239 1.57803172 -26.17394382 3.06282313 -31 7.75 Z " fill="#1A2032" transform="translate(398,260.25)"/>
<path d="M0 0 C4.93719661 3.97122336 8.00036281 9.00108844 10 15 C10.08397157 17.35680213 10.10728187 19.71594081 10.09765625 22.07421875 C10.0962413 22.7580513 10.09482635 23.44188385 10.09336853 24.1464386 C10.08777876 26.32683722 10.07522822 28.50713251 10.0625 30.6875 C10.05748367 32.16731622 10.052921 33.64713406 10.04882812 35.12695312 C10.03781271 38.75133557 10.02055512 42.3756577 10 46 C6.7 46 3.4 46 0 46 C-0.33 44.35 -0.66 42.7 -1 41 C-1.42667969 41.34933594 -1.85335937 41.69867188 -2.29296875 42.05859375 C-8.43396529 46.52822628 -14.47705601 47.47881651 -22 47 C-25.34114519 46.11687792 -28.07106316 44.81520245 -31 43 C-31.9075 42.46375 -32.815 41.9275 -33.75 41.375 C-39.64967302 35.14756736 -41.97426209 27.72895 -42.32421875 19.25 C-41.59275108 11.91769761 -37.63969237 6.15869398 -32.25 1.3125 C-29 -1 -29 -1 -27 -1 C-26.67 -1.66 -26.34 -2.32 -26 -3 C-16.95138466 -5.44770572 -8.18182806 -4.5355786 0 0 Z M-28.3125 11.625 C-31.09047995 17.1809599 -31.81167226 22.32184224 -29.9375 28.3125 C-28.2280918 32.26698348 -25.82795725 34.00627227 -22 36 C-16.87585712 37.70804763 -12.64620549 37.54870435 -7.75 35.3125 C-4.28618994 33.38964993 -2.46454359 31.79058341 -1 28 C0.47016756 21.69928188 -0.00652482 16.80414272 -3 11 C-6.7682393 7.2317607 -10.03631957 5.85935089 -15.3125 5.75 C-21.03691809 5.84292887 -24.47236659 7.26592964 -28.3125 11.625 Z " fill="#475682" transform="translate(503,258)"/>
<path d="M0 0 C0.66 0.33 1.32 0.66 2 1 C2 1.99 2 2.98 2 4 C2.66 4.33 3.32 4.66 4 5 C4 5.66 4 6.32 4 7 C5.32 6.67 6.64 6.34 8 6 C7.21625 6.721875 6.4325 7.44375 5.625 8.1875 C3.15587562 10.83299041 2.06739722 12.60373611 1 16 C0.34 16 -0.32 16 -1 16 C-1.33 18.97 -1.66 21.94 -2 25 C-1.01 25.33 -0.02 25.66 1 26 C0.34 26 -0.32 26 -1 26 C0.74921362 30.57403065 2.02000362 33.40830407 6.3125 36 C12.70600481 37.73383181 18.54926681 36.90536606 25 36 C25.66 38.31 26.32 40.62 27 43 C20.7725542 47.48955395 14.62852289 48.39712649 7 48 C3.65658585 47.12247634 0.92930494 45.81543058 -2 44 C-2.9075 43.46375 -3.815 42.9275 -4.75 42.375 C-10.64967302 36.14756736 -12.97426209 28.72895 -13.32421875 20.25 C-12.58705564 12.86060589 -8.62392039 7.11563863 -3.125 2.3125 C-2.09375 1.549375 -1.0625 0.78625 0 0 Z " fill="#3B496E" transform="translate(474,257)"/>
<path d="M0 0 C0 3.3 0 6.6 0 10 C-1.5675 10.391875 -3.135 10.78375 -4.75 11.1875 C-9.25959035 12.53336077 -11.58027377 13.79178047 -14 18 C-15.12183708 21.36551123 -15.20800968 24.09060232 -15.31640625 27.63671875 C-15.35830078 28.93544922 -15.40019531 30.23417969 -15.44335938 31.57226562 C-15.48316987 32.94400761 -15.52288216 34.31575244 -15.5625 35.6875 C-15.60570835 37.07097645 -15.64932339 38.45444027 -15.69335938 39.83789062 C-15.79958028 43.22515719 -15.90162358 46.61249799 -16 50 C-17.64574566 50.02688151 -19.29161413 50.04634123 -20.9375 50.0625 C-21.85402344 50.07410156 -22.77054687 50.08570313 -23.71484375 50.09765625 C-26 50 -26 50 -27 49 C-27.31364661 44.71623618 -27.27874368 40.41880375 -27.3125 36.125 C-27.34150391 34.93390625 -27.37050781 33.7428125 -27.40039062 32.515625 C-27.46524251 23.39645193 -26.01272454 15.88269149 -21.1875 8.0625 C-16.80654607 3.9318863 -6.09643977 -3.04821989 0 0 Z " fill="#29324E" transform="translate(448,254)"/>
<path d="M0 0 C3.29303205 2.68818943 5.51854653 4.66691873 6 9 C5.01 9 4.02 9 3 9 C2.67 10.32 2.34 11.64 2 13 C1.67 12.67 1.34 12.34 1 12 C0.67 12.99 0.34 13.98 0 15 C-0.66 15 -1.32 15 -2 15 C-2.8971875 13.576875 -2.8971875 13.576875 -3.8125 12.125 C-6.2198331 8.68595271 -7.1025303 8.16082911 -11 7 C-13.7958874 6.79670711 -13.7958874 6.79670711 -16.625 6.9375 C-19.87509648 7.0399003 -21.8863385 7.03788717 -25 6 C-25 5.34 -25 4.68 -25 4 C-25.99 3.67 -26.98 3.34 -28 3 C-27.67 1.02 -27.34 -0.96 -27 -3 C-17.42370235 -5.07055084 -8.66527364 -4.82444965 0 0 Z " fill="#42507A" transform="translate(503,258)"/>
<path d="M0 0 C0 0.66 0 1.32 0 2 C-1.32 2.33 -2.64 2.66 -4 3 C-3.65213292 4.97536745 -3.65213292 4.97536745 -3 7 C-2.34 7.33 -1.68 7.66 -1 8 C-2.27386134 10.54772268 -3.38605496 10.81886088 -5.9375 12 C-8.48615488 13.18413003 -9.98757159 13.98757159 -12 16 C-12 15.34 -12 14.68 -12 14 C-12.66 14 -13.32 14 -14 14 C-14.66 13.34 -15.32 12.68 -16 12 C-16.66 11.67 -17.32 11.34 -18 11 C-18.99 12.98 -19.98 14.96 -21 17 C-21.66 16.34 -22.32 15.68 -23 15 C-19.39646109 8.82250472 -16.56492347 4.98405612 -10 2 C-9.13375 1.5875 -8.2675 1.175 -7.375 0.75 C-4.79340344 -0.06524102 -2.69104391 -0.15377394 0 0 Z " fill="#151B2A" transform="translate(378,254)"/>
<path d="M0 0 C0.495 1.98 0.495 1.98 1 4 C-4.37514905 4.04935509 -9.75016685 4.08569802 -15.12548828 4.10986328 C-16.95493873 4.11993484 -18.78437303 4.13359276 -20.61376953 4.15087891 C-23.23994934 4.17507677 -25.86591675 4.18647132 -28.4921875 4.1953125 C-29.72350906 4.21079636 -29.72350906 4.21079636 -30.97970581 4.22659302 C-32.98789142 4.22699184 -34.99555382 4.1224954 -37 4 C-37.66 3.34 -38.32 2.68 -39 2 C-37.28115601 1.96241577 -37.28115601 1.96241577 -35.52758789 1.92407227 C-31.29146402 1.83016894 -27.05551072 1.72990725 -22.81958008 1.62768555 C-20.98335753 1.5842718 -19.14709292 1.54260161 -17.31079102 1.50268555 C-14.67711689 1.44513831 -12.04365579 1.38140002 -9.41015625 1.31640625 C-8.58411392 1.29969376 -7.75807159 1.28298126 -6.90699768 1.26576233 C-3.14523247 1.52192567 -3.14523247 1.52192567 0 0 Z " fill="#212738" transform="translate(403,277)"/>
<path d="M0 0 C0.66 0.33 1.32 0.66 2 1 C1.2884375 1.8353125 1.2884375 1.8353125 0.5625 2.6875 C-1.14193004 5.21005646 -1.46860435 7.03936708 -2 10 C-2.99 11.485 -2.99 11.485 -4 13 C-4.16699232 16.12521833 -4.16699232 16.12521833 -4 19 C-4.99 19.33 -5.98 19.66 -7 20 C-8.23196772 16.04010375 -8.4394909 14.04218036 -6.80078125 10.15625 C-2.80709654 2.80709654 -2.80709654 2.80709654 0 0 Z " fill="#374163" transform="translate(469,261)"/>
<path d="M0 0 C0.33 1.32 0.66 2.64 1 4 C-4.28 4 -9.56 4 -15 4 C-15.33 3.34 -15.66 2.68 -16 2 C-14.92878906 1.93941406 -13.85757812 1.87882812 -12.75390625 1.81640625 C-11.35675609 1.73201463 -9.95962143 1.64736594 -8.5625 1.5625 C-7.50192383 1.50352539 -7.50192383 1.50352539 -6.41992188 1.44335938 C-2.91309581 1.52375562 -2.91309581 1.52375562 0 0 Z " fill="#272D42" transform="translate(403,277)"/>
<path d="M0 0 C0.95003906 -0.02578125 1.90007812 -0.0515625 2.87890625 -0.078125 C5.4375 0.25 5.4375 0.25 8.4375 3.25 C2.8275 3.25 -2.7825 3.25 -8.5625 3.25 C-8.8925 2.59 -9.2225 1.93 -9.5625 1.25 C-6.33942845 0.30517524 -3.35441247 0.05476592 0 0 Z " fill="#394569" transform="translate(487.5625,253.75)"/>
<path d="M0 0 C0.66 0 1.32 0 2 0 C2 2.64 2 5.28 2 8 C0.35 8.33 -1.3 8.66 -3 9 C-3.33 8.01 -3.66 7.02 -4 6 C-3.34 6 -2.68 6 -2 6 C-1.34 4.02 -0.68 2.04 0 0 Z " fill="#313C5B" transform="translate(444,256)"/>
<path d="M0 0 C0.12375 0.5775 0.2475 1.155 0.375 1.75 C1.00648824 4.02335767 1.88858191 5.9253529 3 8 C2.01 8 1.02 8 0 8 C0 7.34 0 6.68 0 6 C-0.66 6 -1.32 6 -2 6 C-2 4.35 -2 2.7 -2 1 C-1.34 0.67 -0.68 0.34 0 0 Z " fill="#343F61" transform="translate(464,281)"/>
<path d="M0 0 C1.875 0.1875 1.875 0.1875 4 1 C5.25 3.5625 5.25 3.5625 6 6 C2.535 4.02 2.535 4.02 -1 2 C-0.67 1.34 -0.34 0.68 0 0 Z " fill="#0B0E14" transform="translate(314,246)"/>
<path d="" fill="#191E2C" transform="translate(0,0)"/>
<path d="" fill="#2E354B" transform="translate(0,0)"/>
<path d="" fill="#06070A" transform="translate(0,0)"/>
<path d="" fill="#121318" transform="translate(0,0)"/>
<path d="" fill="#151A28" transform="translate(0,0)"/>
<path d="" fill="#161C2B" transform="translate(0,0)"/>
<path d="" fill="#191E2E" transform="translate(0,0)"/>
<path d="" fill="#131925" transform="translate(0,0)"/>
<path d="" fill="#0F1422" transform="translate(0,0)"/>
<path d="" fill="#131825" transform="translate(0,0)"/>
<path d="" fill="#101524" transform="translate(0,0)"/>
<path d="" fill="#121724" transform="translate(0,0)"/>
<path d="" fill="#131825" transform="translate(0,0)"/>
<path d="" fill="#131825" transform="translate(0,0)"/>
<path d="" fill="#475478" transform="translate(0,0)"/>
<path d="" fill="#435076" transform="translate(0,0)"/>
<path d="" fill="#141926" transform="translate(0,0)"/>
<path d="" fill="#475478" transform="translate(0,0)"/>
<path d="" fill="#1D2335" transform="translate(0,0)"/>
<path d="" fill="#161820" transform="translate(0,0)"/>
<path d="" fill="#141A27" transform="translate(0,0)"/>
<path d="" fill="#3C476A" transform="translate(0,0)"/>
<path d="" fill="#313951" transform="translate(0,0)"/>
<path d="" fill="#06070A" transform="translate(0,0)"/>
<path d="" fill="#181C2B" transform="translate(0,0)"/>
<path d="" fill="#222A3C" transform="translate(0,0)"/>
<path d="" fill="#445073" transform="translate(0,0)"/>
<path d="" fill="#161B29" transform="translate(0,0)"/>
<path d="" fill="#444F73" transform="translate(0,0)"/>
<path d="" fill="#191C25" transform="translate(0,0)"/>
<path d="" fill="#101115" transform="translate(0,0)"/>
<path d="" fill="#131825" transform="translate(0,0)"/>
<path d="" fill="#0D0F19" transform="translate(0,0)"/>
<path d="" fill="#23293D" transform="translate(0,0)"/>
<path d="" fill="#2B3145" transform="translate(0,0)"/>
<path d="" fill="#232837" transform="translate(0,0)"/>
<path d="" fill="#121419" transform="translate(0,0)"/>
<path d="" fill="#121418" transform="translate(0,0)"/>
<path d="" fill="#4A587F" transform="translate(0,0)"/>
<path d="" fill="#445073" transform="translate(0,0)"/>
<path d="" fill="#404B6C" transform="translate(0,0)"/>
<path d="" fill="#15171E" transform="translate(0,0)"/>
<path d="" fill="#292F41" transform="translate(0,0)"/>
<path d="" fill="#15181E" transform="translate(0,0)"/>
<path d="" fill="#404C6D" transform="translate(0,0)"/>
<path d="" fill="#232939" transform="translate(0,0)"/>
<path d="" fill="#15171E" transform="translate(0,0)"/>
<path d="" fill="#08090B" transform="translate(0,0)"/>
<path d="" fill="#222736" transform="translate(0,0)"/>
<path d="" fill="#16181F" transform="translate(0,0)"/>
<path d="" fill="#15181F" transform="translate(0,0)"/>
<path d="" fill="#404B6B" transform="translate(0,0)"/>
<path d="" fill="#292F41" transform="translate(0,0)"/>
<path d="" fill="#434F72" transform="translate(0,0)"/>
<path d="" fill="#111726" transform="translate(0,0)"/>
<path d="" fill="#404B6B" transform="translate(0,0)"/>
<path d="" fill="#4B5980" transform="translate(0,0)"/>
<path d="" fill="#141A28" transform="translate(0,0)"/>
<path d="" fill="#475478" transform="translate(0,0)"/>
<path d="" fill="#495780" transform="translate(0,0)"/>
<path d="" fill="#28304C" transform="translate(0,0)"/>
<path d="" fill="#161C2C" transform="translate(0,0)"/>
<path d="" fill="#414C6D" transform="translate(0,0)"/>
<path d="" fill="#48557A" transform="translate(0,0)"/>
<path d="" fill="#3E4A6C" transform="translate(0,0)"/>
<path d="" fill="#424F74" transform="translate(0,0)"/>
<path d="" fill="#363E59" transform="translate(0,0)"/>
<path d="" fill="#343C56" transform="translate(0,0)"/>
<path d="" fill="#2B3145" transform="translate(0,0)"/>
<path d="" fill="#414C6E" transform="translate(0,0)"/>
<path d="" fill="#3E496A" transform="translate(0,0)"/>
<path d="" fill="#3D4766" transform="translate(0,0)"/>
<path d="" fill="#3B4562" transform="translate(0,0)"/>
<path d="" fill="#2F3953" transform="translate(0,0)"/>
<path d="" fill="#2A3144" transform="translate(0,0)"/>
<path d="" fill="#465377" transform="translate(0,0)"/>
<path d="" fill="#3C4664" transform="translate(0,0)"/>
<path d="" fill="#242939" transform="translate(0,0)"/>
<path d="" fill="#111216" transform="translate(0,0)"/>
<path d="" fill="#475378" transform="translate(0,0)"/>
<path d="" fill="#455175" transform="translate(0,0)"/>
<path d="" fill="#38415D" transform="translate(0,0)"/>
<path d="" fill="#38425E" transform="translate(0,0)"/>
<path d="" fill="#3A435D" transform="translate(0,0)"/>
<path d="" fill="#2C3348" transform="translate(0,0)"/>
<path d="" fill="#3E4969" transform="translate(0,0)"/>
<path d="" fill="#191F2E" transform="translate(0,0)"/>
<path d="" fill="#38425E" transform="translate(0,0)"/>
<path d="" fill="#313955" transform="translate(0,0)"/>
<path d="" fill="#455277" transform="translate(0,0)"/>
<path d="" fill="#2D354A" transform="translate(0,0)"/>
<path d="" fill="#2D354A" transform="translate(0,0)"/>
<path d="" fill="#2E354F" transform="translate(0,0)"/>
<path d="" fill="#15171E" transform="translate(0,0)"/>
<path d="" fill="#111825" transform="translate(0,0)"/>
<path d="" fill="#151B28" transform="translate(0,0)"/>
<path d="" fill="#1E222E" transform="translate(0,0)"/>
<path d="" fill="#1E222E" transform="translate(0,0)"/>
<path d="" fill="#151B29" transform="translate(0,0)"/>
<path d="" fill="#48557C" transform="translate(0,0)"/>
<path d="" fill="#3E496A" transform="translate(0,0)"/>
<path d="" fill="#282D3B" transform="translate(0,0)"/>
<path d="" fill="#151B28" transform="translate(0,0)"/>
<path d="" fill="#445073" transform="translate(0,0)"/>
<path d="" fill="#48547B" transform="translate(0,0)"/>
<path d="" fill="#1D212C" transform="translate(0,0)"/>
<path d="" fill="#121318" transform="translate(0,0)"/>
<path d="" fill="#313B56" transform="translate(0,0)"/>
<path d="" fill="#0D1019" transform="translate(0,0)"/>
<path d="" fill="#050608" transform="translate(0,0)"/>
<path d="" fill="#060608" transform="translate(0,0)"/>
<path d="" fill="#445073" transform="translate(0,0)"/>
<path d="" fill="#0B0F17" transform="translate(0,0)"/>
<path d="" fill="#434F72" transform="translate(0,0)"/>
<path d="" fill="#404B6C" transform="translate(0,0)"/>
<path d="" fill="#353D57" transform="translate(0,0)"/>
<path d="" fill="#222736" transform="translate(0,0)"/>
<path d="" fill="#3E496A" transform="translate(0,0)"/>
<path d="" fill="#37405B" transform="translate(0,0)"/>
<path d="" fill="#3E496A" transform="translate(0,0)"/>
<path d="" fill="#202432" transform="translate(0,0)"/>
<path d="" fill="#333B54" transform="translate(0,0)"/>
<path d="" fill="#090A0D" transform="translate(0,0)"/>
<path d="" fill="#151927" transform="translate(0,0)"/>
<path d="" fill="#0E1018" transform="translate(0,0)"/>
<path d="" fill="#111216" transform="translate(0,0)"/>
<path d="" fill="#141A26" transform="translate(0,0)"/>
<path d="" fill="#121317" transform="translate(0,0)"/>
<path d="" fill="#121418" transform="translate(0,0)"/>
<path d="" fill="#121318" transform="translate(0,0)"/>
<path d="" fill="#0A0D13" transform="translate(0,0)"/>
<path d="" fill="#121318" transform="translate(0,0)"/>
<path d="" fill="#14161C" transform="translate(0,0)"/>
<path d="" fill="#151B28" transform="translate(0,0)"/>
<path d="" fill="#141A26" transform="translate(0,0)"/>
<path d="" fill="#191F2E" transform="translate(0,0)"/>
<path d="" fill="#161B29" transform="translate(0,0)"/>
<path d="" fill="#161B29" transform="translate(0,0)"/>
<path d="" fill="#151B28" transform="translate(0,0)"/>
<path d="" fill="#151A27" transform="translate(0,0)"/>
<path d="" fill="#161B29" transform="translate(0,0)"/>
<path d="" fill="#151B27" transform="translate(0,0)"/>
<path d="" fill="#151A27" transform="translate(0,0)"/>
</svg>
